<?xml version="1.0" encoding="UTF-8"?>
<svg width="322.88mm" height="331.96mm" version="1.1" viewBox="0 0 1144.057 1176.2305" xmlns="http://www.w3.org/2000/svg">
 <g transform="translate(1017.6 -538.79)">
  <path d="m-549.29 538.79c-41.209 12.922-81.985 20.579-127.86 29.643-5.2381 18.532 1.843 31.023 18.57 42.857l0.71485 58.928-0.60742 68.572c-0.11681 13.2 1.924 12.473-11.893 16.428-22.848 6.5404-42.559 6.205-68.57 5-12.153-0.56299-19.622-3.6426-38.572-5.3574-10.703-0.96852-16.414 16.362-3.9277 19.287 17.754 4.1585 31.845 2.6148 49.643 2.5 19.057-0.1229 38.089-2.13 57.143-1.7871 10.635 0.19136 18.482-1.4785 26.07 20.357 16.062 46.217-11.036 114.55-33.213 156.07-34.327 64.266-56.577 131.8-53.215 208.57 1.6352 37.333 16.18 66.203 45 90.358 14.144 11.854 23.195 34.149 27.5 57.857 12.741 70.167-4.8549 158.15-40 240-12.081 28.134-32.528 53.779-37.857 87.143 7.8571 0.119 15.715 0.2383 23.572 0.3574 8.3333 3.4524 16.667 6.905 25 10.357 12.5 0.5952 25 1.19 37.5 1.7852 18.452-0.2381 36.905-0.4748 55.357-0.7129 25.595 1.9047 51.19 3.8081 76.785 5.7129 20.833-0.4763 41.667-0.9516 62.5-1.4278 19.881 2.8571 39.762 5.7132 59.643 8.5703-5.0529-43.348-6.0771-68.015 2.1426-112.14 16.634-89.3 33.157-171.3-3.5703-257.5-25.252-59.264-81.199-117.37-138.93-160-38.163-28.179-19.045-68.951 1.4297-107.14 26.26-48.982 28.079-114.2 34.285-175.71 2.7677-27.435-2.748-41.959-11.072-68.57-6.1506-19.662-2.0142-16.758 11.43-25 14.692-9.0065 29.602-17.662 44.643-26.072 10.134-5.6667 23.364-7.4402 30.715-16.428 2.3606-2.8863 4.2527-7.1341 3.2129-10.715-0.65899-2.2693-3.007-4.3984-5.3574-4.6426-6.0956-0.63313-10.577 6.211-16.07 8.9277-12.807 6.3337-26.03 11.811-39.285 17.145-7.6524 3.0794-15.477 5.7132-23.215 8.5703-8.5445 3.1549-10.663 0.44069-11.072-2.8574-3.0659-24.701-8.3892-38.148-12.857-63.57-3.5983-20.473 1.5613-32.442-1.7852-53.93 0 0-3.8253-29.173-6.7852-43.57-1.9303-9.3898-7.1426-27.857-7.1426-27.857zm5.5352 254.34c2.6986-0.11124 6.0738 2.9225 7.8633 5.1738 3.3849 4.2584 5.4235 9.7502 6.0625 15.152 1.246 10.534 1.3438 21.375-0.50586 31.82-1.0766 6.0798-2.8839 13.336-8.082 16.668-3.4515 2.2125-8.6757-1.1831-11.615-4.041-3.6173-3.5169-5.9371-8.631-6.5664-13.637-1.2712-10.112-1.1799-20.605 1.0098-30.559 1.6016-7.28 4.2299-15.357 10.102-19.949 0.52278-0.40884 1.1097-0.60324 1.7324-0.6289zm-44.045 14.582c2.2962-0.0388 4.8169 0.86652 6.4512 2.209 2.9235 2.4015 3.7231 6.8355 4.041 10.605 0.87733 10.403 1.666 21.105-0.50391 31.316-0.84279 3.9661-4.0274 9.0898-8.082 9.0898-4.9171 0-9.8694-4.4938-11.617-9.0898-3.1807-8.364-3.2704-17.909-2.0195-26.77 0.84201-5.9642 3.4547-12.306 8.082-16.162 0.97486-0.81239 2.2707-1.176 3.6484-1.1992z"/>
  <path d="m-1017.1 1234.5c-3.2485 16.964 10.094 17.734 14.286 1.4285 12.894-50.159 25.164-49.471 40-68.571-19.939 35.44-32.182 63.155-26.429 110 2.1491 17.498 18.455 17.306 17.143 0.7143-3.6903-46.657 2.055-64.778 21.429-94.286-18.741 39.383-17.204 71.193-6.4286 110 2.368 8.5286 17.931 7.152 15-4.2857-9.1749-35.803-9.4634-58.678-1.4286-85.714-7.3502 33.388-1.1161 61.9 8.5714 100.36 2.1733 8.6275 19.982 9.0151 16.429-1.0714-18.033-51.18-10.095-80.626 5-127.86 28.199 5.1514 15.994 34.861 5.7143 64.286-1.8731 5.3617-4.986 10.403-0.71429 20 2.6843 6.0305 8.727 7.9769 13.571-2.1429 12.356-25.812 25.395-52.381 9.2857-78.571 27.75 14.108 53.158 7.3285 77.143-49.286 27.674-65.323 26.615-116.12 20.714-167.86-13.304-116.65 55.51-100.98 94.688-41.896 12.878 19.423 27.139 16.594 30.312 11.896l10.714-20.714-8.5714-0.71428c-18.607 3.4645-27.752-16.791-37.688-27.402-50.305-53.72-127.34-36.681-123.03 73.83 2.3478 60.147 13.789 114.53-5.7143 163.57-10.626 26.721-25.179 44.834-64.286 30.714s-47.651-12.552-75.591 4.5606-44.317 48.69-50.123 79.011z"/>
  <path d="m-520.71 933.08c17.034 21.527 37.247 40.253 75 42.857 57.194 3.945 108.23-23.588 139.29-45 34.587-23.845 34.98-78.187 25.714-124.29-12.776-63.563-49.982-81.959-78.571-112.14-7.9593 14.864-19.157 29.286-38.571 42.143-25.382 16.809-45.352 6.3179-46.429-16.429-0.7496-15.841 7.2438-20.133 15-7.1429 22.017 36.873 39.643-8.1319 47.143-16.429-2.9641-9.8292-3.985-19.85-5-30-18.01-18.834-34.005-22.586-41.067-15.591-11.797 11.686-4.8004 24.138 0.35237 37.019 8.4857 21.214-22.603 21.483-27.143 13.571-15.959-27.809-5.7142-60.495 18.571-70.714 31.621-13.306 45.961 12.965 66.429 27.143 10.419-24.054-0.66221-39.01-33.571-55.714-17.175-8.7179-4.9304-32.573 11.429-23.571 19.307 10.623 37.209 23.255 45.714 56.429 3.7675-13.701 10.792-26.723 6.4286-41.429-6.3575-21.427 21.196-26.383 25-7.1429 4.1712 21.1-5.2432 41.999-14.286 62.143 23.961-7.6782 28.99-30.421 35-55 5.5641-22.753 23.95-9.3065 20.714 8.5714-8.3272 46.009-34.532 67.094-69.286 80.714 29.474 38.223 74.138 57.506 82.857 123.57 6.7635 51.249 5.3267 110.14-35 139.29-35.531 25.677-95.707 47.838-152.14 47.857-33.453 0.0115-54.658-16.105-75-32.143"/>
  <path d="m-340.72 1322.2c-3.5009-0.194-6.397 3.6092-5.7598 13.506 2.1566 33.495 5.3938 66.952 6.0605 100.51 0.34504 17.367-3.4614 34.656-3.0293 52.022 1.1453 46.03 21.703 64.209 46.301 76.125-15.879 41.989-31.537 81.55-53.373 120.86l35.355 17.678c2.3774-48.568 19.809-86.219 37.162-130.36 11.009 5.1333 16.289 6.663 27.402 6.2363-12.342 41.101-22.391 82.654-31.229 124.63l32.83 6.5645c0.35352-51.319 10.948-86.585 26.105-132.3 10.152-0.366 20.306-0.6225 30.463-0.5313 33.186 0.2981 66.433 0.7124 99.5 3.5352 8.961 0.7487 18.685 1.368 28.789 2.2187-9.7899 40.965-16.361 82.512-23.234 124.05l25.254 6.5664c11.846-22.29 17.521-90.716 36.408-125.69 9.9182 1.894 19.791 4.4172 29.328 7.873-13.815 38.933-22.803 76.897-30.885 117.31l23.232 2.0195c4.8024-39.497 15.752-75.561 27.223-113.02 13.603-12.619 9.926-22.332 16.719-33.449 5.4346-8.8944 17.612-11.183 26.77-16.162 30.97-16.042 48.058-38.334 57.074-78.287 3.899-19.261 4.8652-42.605-6.5664-58.59-11.348-15.868-33.529-24.354-53.033-24.748-17.39-0.3513-37.023 8.4612-46.973 22.728-10.38 14.885-14.636 37.79-6.5645 54.043 7.2347 14.567 27.712 20.145 43.941 21.213 12.171 0.8007 24.421-7.3268 32.83-16.162 6.1387-6.4495 9.886-17.313 7.0703-25.76-3.2772-9.8315-13.59-16.325-22.729-21.213-6.1156-3.2711-14.745-5.5623-20.707-2.0195-7.671 4.5579-14.143 13.806-14.143 22.728 0 6.9089 7.3042 14.168 14.143 15.152 6.1984 0.8921 12.232-6.181 8.5859-10.607-2.0112-2.4414-5.7721-5.9383-4.041-8.586 2.4481-3.7439 8.2439-5.4394 12.627-4.5449 5.0495 1.0305 10.491 4.7066 12.121 9.5957 1.744 5.2319 0.57859 12.489-3.5352 16.162-6.5557 5.8533-15.991 9.8353-24.748 9.0918-10.581-0.8984-24.424-3.9569-28.789-13.637-5.2466-11.634-2.5374-28.012 5.5547-37.881 8.0356-9.7995 23.2-13.174 35.861-12.627 12.57 0.5426 27.015 5.4295 34.344 15.656 8.9051 12.426 11.994 29.944 9.0918 44.953-3.3937 17.55-12.017 36.373-26.77 46.467-13.857 9.4808-33.334 8.0741-50.002 6.0605-59.203-7.152-117.18-22.224-175.77-33.336-0.33921-12.234 1.8453-24.887-6.0625-35.859 20.143-36.564 46.144-70.968 58.084-94.449 12.376-24.338-9.2005-15.906-15.152-10.607-23.811 21.197-44.059 48.386-77.275 78.793-36.534-1.3469-73.068-2.6941-109.6-4.041-12.29-29.8-27.801-58.466-36.871-89.398-1.7858-6.0901-5.8916-10.281-9.3926-10.475zm49.617 129.5c5.4558-0.058 10.262 0.5486 14.564 1.8672-2.1375 10.375-5.0345 24.594-6.959 34.818-11.116-4.5582-19.942-15.994-27.928-34.24 7.6485-1.5374 14.367-2.3814 20.322-2.4453zm27.195 9.043c5.9303 5.3734 10.687 13.274 14.982 24.115-5.0752 2.3092-9.7923 3.9107-14.211 4.8399zm59.232 3.7695c0.0977-6e-4 0.19347 0.01 0.29101 0.01-3.965 9.9874-9.0578 22.732-12.246 30.373-8.3694-3.5225-15.895-9.4427-21.225-17.889 10.996-8.3899 22.508-12.424 33.18-12.49zm14.711 2.6465c9.3417 3.5957 17.258 10.799 22.467 21.272-8.0215 6.893-18.808 10.408-29.811 10.365z"/>
 </g>
</svg>
